<?xml version="1.0" encoding="utf-8"?>
<!-- Generator: Adobe Illustrator 26.3.1, SVG Export Plug-In . SVG Version: 6.00 Build 0)  -->
<svg version="1.1" id="Layer_1" xmlns="http://www.w3.org/2000/svg" xmlns:xlink="http://www.w3.org/1999/xlink" x="0px" y="0px"
	 viewBox="0 0 971 613" enable-background="new 0 0 971 613" xml:space="preserve">
<rect fill="#131312" width="971" height="613"/>
<path fill="none" stroke="#000000" stroke-width="9" stroke-miterlimit="10" d="M861.57,539.21"/>
<path fill="none" stroke="#FFFFFF" stroke-width="9" stroke-linecap="round" stroke-miterlimit="10" d="M922.78,503.3
	c6.2,10.54,9.77,22.81,9.77,35.92c0,12.82-3.42,24.83-9.36,35.21 M907.9,566.67c4.78-8.04,7.53-17.43,7.53-27.46
	c0-10.32-2.91-19.96-7.94-28.16 M892.46,558.84c3.61-5.67,5.72-12.41,5.72-19.63c0-7.52-2.27-14.5-6.15-20.32 M877.76,551.39
	c2.56-3.39,4.09-7.6,4.09-12.18c0-4.87-1.72-9.34-4.58-12.83"/>
<g>
	<path fill-rule="evenodd" clip-rule="evenodd" fill="#FFFFFF" d="M217.45,66.44c1.42-3.91,3.04-8.71,4.83-12.25l2.29,12.51
		c0.45,2.08,0.89,4.13,1.34,6.19c0.42,1.9,1.02,4.19,1.28,6.07l-14.29-0.03L217.45,66.44L217.45,66.44z M203.89,102.84
		c1.22-0.69,3.14-9.87,4.22-10.12l21.46,0.02c0.69,0.14,0.58,0.61,0.74,1.44c0.54,2.86,1.38,5.9,1.81,8.66l16.03-0.04l-13.98-66.87
		c-4.69-0.1-9.84-0.17-14.51,0.06c-4.29,0.21-6.51,1.78-8.25,6.06c-2.74,6.73-5.59,13.52-8.43,20.2
		c-2.87,6.76-5.64,13.53-8.49,20.31l-8.4,20.27L203.89,102.84L203.89,102.84z"/>
	<path fill-rule="evenodd" clip-rule="evenodd" fill="#FFFFFF" d="M187.54,51.87l2.11-14.59c-1.42-0.87-6.1-1.73-8.1-2.06
		c-13.92-2.3-32.76,1.94-36.13,17.84c-1.43,6.77,1.33,12.65,6.9,17.07c6.41,5.1,16.97,7.62,16.98,13.02
		c0.01,2.83-2.52,4.72-4.59,5.59c-2.11,0.89-6.27,1.04-8.77,0.89c-6.4-0.38-10.47-2.18-15.51-4.39l-2.49,15.03
		c1.17,0.27,2.56,0.92,3.86,1.31c13.33,3.94,33.09,3.4,41.91-8.88c2.68-3.73,4.53-9.95,3.19-15.68c-0.61-2.61-1.96-5.31-3.37-6.71
		c-0.95-0.94-1.41-1.63-2.45-2.51c-5.25-4.45-11.14-5.77-15.36-9.41c-1.72-1.49-3.98-3.09-1.6-6.56c2.7-3.94,11.59-3.46,15.96-2.46
		C184.08,50.28,186.08,51.51,187.54,51.87L187.54,51.87z"/>
	<path fill-rule="evenodd" clip-rule="evenodd" fill="#FFFFFF" d="M76.61,72.59C74.72,66,70.54,60.13,67,56.18
		c-0.54-0.61-0.95-1.23-1.54-1.77c-0.45-0.41-0.45-0.32-0.85-0.8c-1.85-2.21-9.05-7.68-11.76-9c0.36,2.28,3.08,11.53,3.88,14.68
		l7.67,29.04c1.22,4.84,2.7,9.66,3.89,14.41l18.02,0.12c0.24-1.04,2.86-6.86,3.5-8.45c1.15-2.81,2.28-5.52,3.45-8.3
		c4.67-11.17,9.05-22.44,13.67-33.67c1.52-3.7,5.75-13.55,6.77-16.56l-18.35-0.01l-16.8,45.46C77.78,79.84,77.52,73.92,76.61,72.59
		L76.61,72.59z"/>
	<path fill-rule="evenodd" clip-rule="evenodd" fill="#FFFFFF" d="M137.92,35.84l-17.26,0.05c-1.92,11.07-3.59,22.24-5.38,33.31
		l-4.03,25.18c-0.4,2.67-1.02,5.72-1.2,8.39l17.14-0.01L137.92,35.84L137.92,35.84z"/>
	<path fill-rule="evenodd" clip-rule="evenodd" fill="#FFFFFF" d="M52.85,44.61c2.71,1.33,9.91,6.8,11.76,9
		c0.4,0.48,0.4,0.39,0.85,0.8c0.59,0.53,1,1.16,1.54,1.77c3.54,3.96,7.71,9.82,9.61,16.41c0.23-0.88-2.69-14.43-3.12-16.68
		c-0.62-3.25-2.46-14.38-3.65-16.51c-1.28-2.29-3.13-3.36-6.63-3.47c-6.49-0.2-13.45-0.02-20.06-0.1c-2.52-0.03-7.29-0.43-9.17,0.9
		c0.03,0.03,0.09,0.02,0.11,0.07s0.09,0.06,0.11,0.07c0.85,0.44-0.3-0.11,0.24,0.12l1.93,0.64C41.26,39.26,49.04,41.92,52.85,44.61
		L52.85,44.61z"/>
	<path fill="#FFFFFF" d="M170.59,118.79c1.84-0.28,4.04-0.49,6.44-0.49c4.35,0,7.45,1.01,9.5,2.92c2.09,1.91,3.31,4.63,3.31,8.42
		c0,3.83-1.18,6.96-3.38,9.12c-2.19,2.19-5.81,3.38-10.37,3.38c-2.16,0-3.97-0.1-5.5-0.28V118.79z M173.61,139.54
		c0.77,0.14,1.88,0.17,3.06,0.17c6.47,0,9.99-3.62,9.99-9.95c0.04-5.53-3.1-9.05-9.5-9.05c-1.57,0-2.75,0.14-3.55,0.31V139.54z"/>
	<path fill="#FFFFFF" d="M195.5,134.07c0.07,4.14,2.71,5.85,5.78,5.85c2.19,0,3.52-0.38,4.66-0.87l0.52,2.19
		c-1.08,0.49-2.92,1.04-5.6,1.04c-5.19,0-8.28-3.41-8.28-8.49s2.99-9.08,7.9-9.08c5.5,0,6.96,4.84,6.96,7.94
		c0,0.63-0.07,1.11-0.1,1.43L195.5,134.07L195.5,134.07z M204.48,131.88c0.03-1.95-0.8-4.98-4.25-4.98c-3.1,0-4.46,2.85-4.7,4.98
		H204.48z"/>
	<path fill="#FFFFFF" d="M211.09,141.94c0.07-1.15,0.14-2.85,0.14-4.35v-20.36h3.03v10.58h0.07c1.08-1.88,3.03-3.1,5.74-3.1
		c4.18,0,7.14,3.48,7.1,8.6c0,6.02-3.79,9.01-7.55,9.01c-2.44,0-4.39-0.94-5.64-3.17h-0.1l-0.14,2.78h-2.65V141.94z M214.26,135.19
		c0,0.38,0.07,0.77,0.14,1.11c0.59,2.12,2.37,3.58,4.59,3.58c3.2,0,5.12-2.61,5.12-6.47c0-3.38-1.74-6.27-5.01-6.27
		c-2.09,0-4.04,1.43-4.66,3.76c-0.07,0.35-0.17,0.77-0.17,1.25L214.26,135.19L214.26,135.19z"/>
	<path fill="#FFFFFF" d="M234.44,120.36c0.03,1.04-0.73,1.88-1.95,1.88c-1.08,0-1.84-0.84-1.84-1.88c0-1.08,0.8-1.91,1.91-1.91
		C233.71,118.45,234.44,119.28,234.44,120.36z M231.03,141.94v-16.85h3.06v16.85H231.03z"/>
	<path fill="#FFFFFF" d="M242.86,120.26v4.84h4.39v2.33h-4.39v9.08c0,2.09,0.59,3.27,2.3,3.27c0.8,0,1.39-0.1,1.77-0.21l0.14,2.3
		c-0.59,0.24-1.53,0.42-2.71,0.42c-1.43,0-2.58-0.45-3.31-1.29c-0.87-0.9-1.18-2.4-1.18-4.39v-9.19h-2.61v-2.33h2.61v-4.04
		L242.86,120.26z"/>
</g>
<g>
	<path fill="#AEACAC" stroke="#666666" stroke-width="2" stroke-miterlimit="10" d="M202.64,304.67H120.5
		c-12.34,0-22.43-10.09-22.43-22.43V229.1c0-12.34,10.09-22.43,22.43-22.43h82.14c12.34,0,22.43,10.09,22.43,22.43v53.14
		C225.07,294.58,214.98,304.67,202.64,304.67z"/>
	<polyline fill="none" stroke="#666666" stroke-width="2" stroke-miterlimit="10" points="144.94,206.67 144.94,234.48 
		142.56,236.7 142.56,276.12 144.94,278.17 144.94,304.67 	"/>
	<line fill="none" stroke="#666666" stroke-width="2" stroke-miterlimit="10" x1="178.9" y1="206.67" x2="178.9" y2="234.82"/>
	<line fill="none" stroke="#666666" stroke-width="2" stroke-miterlimit="10" x1="149.12" y1="219.53" x2="174.12" y2="219.53"/>
	<line fill="none" stroke="#666666" stroke-width="2" stroke-miterlimit="10" x1="149.12" y1="293.53" x2="174.12" y2="293.53"/>
	<polyline fill="none" stroke="#666666" stroke-width="2" stroke-miterlimit="10" points="98.07,243.02 100.24,241.48 
		139.83,241.48 142.56,243.7 	"/>
	<polyline fill="none" stroke="#666666" stroke-width="2" stroke-miterlimit="10" points="142.56,268.78 139.83,271.51 
		100.24,271.51 98.07,268.78 	"/>
	<polyline fill="none" stroke="#666666" stroke-width="2" stroke-miterlimit="10" points="225.07,243.7 222.58,241.48 183,241.48 
		180.44,244.55 180.44,268.78 180.44,275.44 178.9,278.17 178.9,304.67 	"/>
	<polyline fill="none" stroke="#666666" stroke-width="2" stroke-miterlimit="10" points="180.44,268.78 183.17,271.51 
		221.9,271.51 225.07,268.78 	"/>
</g>
<path fill="#FFFFFF" d="M798.78,251.36c-1.05,0-2.05,0.43-2.76,1.2v-3.49c0.03-0.5-0.35-0.92-0.85-0.95s-0.92,0.35-0.95,0.85
	c0,0.03,0,0.06,0,0.1v10.2c-0.01,0.5,0.39,0.91,0.89,0.91c0.01,0,0.02,0,0.02,0c0.49,0,0.89-0.4,0.88-0.89c0-0.01,0-0.01,0-0.02
	v-0.13c0.73,0.74,1.72,1.16,2.76,1.15c2.46-0.2,4.3-2.35,4.1-4.82C802.71,253.28,800.98,251.54,798.78,251.36L798.78,251.36z
	 M801.09,255.85c0.13,1.39-0.9,2.63-2.29,2.76c-0.08,0.01-0.15,0.01-0.23,0.01c-1.54-0.12-2.69-1.47-2.57-3.02
	c0.11-1.37,1.2-2.46,2.57-2.57c1.42,0.03,2.55,1.2,2.53,2.62c0,0.06,0,0.12-0.01,0.17L801.09,255.85L801.09,255.85z M811.86,251.45
	c-0.4,0-0.75,0.26-0.87,0.64l-2.2,5.59l-2.48-5.59c-0.12-0.38-0.48-0.64-0.88-0.64c-0.5-0.01-0.91,0.38-0.92,0.88
	c0,0.01,0,0.01,0,0.02c0.01,0.13,0.03,0.25,0.08,0.37l3.31,7.01l0,0c-0.46,1.04-0.84,1.23-1.34,1.23c-0.26,0.01-0.51-0.03-0.75-0.11
	c-0.13-0.05-0.26-0.07-0.39-0.07c-0.44-0.01-0.81,0.34-0.82,0.79v0.01c0,0.36,0.23,0.68,0.57,0.8l0,0c0.45,0.17,0.93,0.25,1.42,0.25
	c1.37,0,2.22-0.71,2.95-2.44l3.15-7.5c0.04-0.11,0.06-0.23,0.07-0.35C812.73,251.84,812.34,251.46,811.86,251.45z M828.38,254.16
	c0.84-0.54,1.33-1.47,1.3-2.47c0.02-0.73-0.26-1.43-0.78-1.94c-0.84-0.74-1.93-1.12-3.04-1.06h-4.04c-0.51,0.02-0.91,0.44-0.9,0.94
	v9.55c0,0.5,0.4,0.91,0.9,0.91h4.21c2.58,0,4.23-1.27,4.23-3.28C830.27,255.63,829.52,254.56,828.38,254.16z M822.74,250.39h2.98
	c1.34,0,2.09,0.54,2.09,1.51c0,1.45-1.52,1.61-2.19,1.61h-2.89v-3.12H822.74z M826.07,258.4h-3.33v-3.2h3.11
	c1.18,0,2.58,0.28,2.58,1.59C828.42,257.8,827.54,258.4,826.07,258.4L826.07,258.4z M841.91,248.61c-0.51,0-0.92,0.4-0.93,0.91l0,0
	v7.24l-6.02-7.64c-0.18-0.3-0.51-0.48-0.86-0.48h-0.16c-0.5,0-0.91,0.41-0.91,0.91v9.7c0,0.5,0.4,0.91,0.89,0.91
	c0.5,0,0.91-0.41,0.91-0.91v-7.47l6.17,7.88c0.22,0.29,0.56,0.47,0.92,0.47c0.47,0.01,0.85-0.36,0.86-0.83c0-0.02,0-0.03,0-0.05
	v-9.73C842.8,249.03,842.41,248.62,841.91,248.61z M850.56,248.69h-3.45c-0.51,0.02-0.91,0.44-0.9,0.94v9.64
	c0.03,0.5,0.46,0.89,0.96,0.86c0.47-0.03,0.84-0.4,0.86-0.86v-2.97h2.33c2.72,0,4.56-1.54,4.56-3.87
	C854.93,250.17,853.21,248.69,850.56,248.69z M850.4,254.58h-2.36v-4.15h2.43c0.78,0,2.59,0.2,2.59,2.07
	C853.07,253.77,852.03,254.58,850.4,254.58L850.4,254.58z M867.42,248.69h-3.44c-0.51,0.01-0.92,0.43-0.91,0.94v9.64
	c0,0.5,0.41,0.91,0.91,0.91s0.92-0.41,0.93-0.91v-2.97h2.33c2.19,0.3,4.21-1.24,4.5-3.43c0.02-0.15,0.03-0.29,0.04-0.44
	C871.76,250.17,870.06,248.69,867.42,248.69z M867.26,254.58h-2.36v-4.15h2.41c0.78,0,2.59,0.2,2.59,2.07
	C869.91,253.77,868.87,254.58,867.26,254.58L867.26,254.58z M879.22,249.3c-0.16-0.46-0.61-0.76-1.1-0.73
	c-0.47,0-0.89,0.28-1.06,0.72l-4.39,9.58c-0.07,0.14-0.1,0.3-0.1,0.46c0,0.46,0.37,0.84,0.83,0.84c0.01,0,0.02,0,0.03,0
	c0.39,0.01,0.73-0.22,0.87-0.58l1.04-2.33h5.54l1.06,2.29c0.13,0.37,0.47,0.62,0.86,0.62c0.49,0.01,0.89-0.38,0.9-0.88v-0.01
	c-0.01-0.15-0.04-0.29-0.1-0.42L879.22,249.3z M876.11,255.53l2.01-4.47l2.02,4.47H876.11z M895.58,252.22
	c0.01-0.87-0.33-1.71-0.93-2.33c-0.9-0.81-2.08-1.23-3.29-1.18h-4.05c-0.51,0.01-0.92,0.43-0.93,0.94v9.64
	c0.03,0.51,0.46,0.9,0.97,0.88c0.47-0.02,0.85-0.4,0.88-0.88v-3.37h2.66l2.94,3.82c0.18,0.28,0.48,0.44,0.81,0.45
	c0.5-0.01,0.91-0.41,0.93-0.91c-0.01-0.23-0.1-0.45-0.26-0.61l-2.4-3.08C894.49,255.25,895.62,253.84,895.58,252.22z M891.26,254.21
	h-3.01v-3.78h3.02c1.57,0,2.48,0.67,2.48,1.86C893.74,253.46,892.76,254.21,891.26,254.21z M899.55,248.61
	c-0.5,0.01-0.91,0.41-0.92,0.91v9.73c0.02,0.5,0.42,0.9,0.92,0.91c0.51,0,0.92-0.41,0.92-0.91l0,0v-9.73
	C900.47,249.02,900.05,248.61,899.55,248.61L899.55,248.61z M911.41,254.16c0.84-0.53,1.33-1.47,1.3-2.47
	c0.02-0.73-0.26-1.43-0.78-1.94c-0.84-0.74-1.94-1.12-3.05-1.06h-4.01c-0.51,0.02-0.91,0.44-0.9,0.94v9.55c0,0.5,0.4,0.91,0.9,0.91
	h4.21c2.57,0,4.24-1.27,4.24-3.28C913.33,255.62,912.56,254.55,911.41,254.16z M905.77,250.39h2.98c1.34,0,2.1,0.54,2.1,1.51
	c0,1.45-1.52,1.61-2.18,1.61h-2.9L905.77,250.39z M909.1,258.4h-3.32v-3.2h3.11c1.18,0,2.58,0.28,2.58,1.59
	C911.46,257.8,910.58,258.4,909.1,258.4L909.1,258.4z M921.98,249.3c-0.25-0.6-0.93-0.88-1.52-0.63c-0.29,0.12-0.52,0.35-0.63,0.63
	l-4.41,9.58c-0.07,0.14-0.11,0.3-0.1,0.46c0,0.47,0.39,0.84,0.86,0.84h0.01c0.38,0.01,0.73-0.22,0.86-0.58l1.04-2.33h5.56l1.04,2.29
	c0.13,0.37,0.48,0.62,0.88,0.62c0.49,0,0.89-0.39,0.89-0.88v-0.01c-0.01-0.14-0.04-0.29-0.09-0.42L921.98,249.3z M918.87,255.53
	l2.02-4.47l2.01,4.47H918.87z M933.22,253.51c-2.5-0.54-2.7-1.09-2.7-1.83c0-0.84,0.82-1.43,1.99-1.43c0.95-0.01,1.87,0.3,2.62,0.87
	c0.15,0.13,0.35,0.2,0.54,0.18c0.5,0,0.89-0.41,0.89-0.9c-0.01-0.29-0.16-0.57-0.4-0.74c-1.05-0.76-2.32-1.15-3.61-1.12
	c-1.9-0.22-3.62,1.14-3.84,3.04c-0.01,0.08-0.02,0.16-0.02,0.24c0,2.14,1.54,2.91,3.87,3.4c2.37,0.52,2.57,1.09,2.57,1.81
	c0,0.9-0.85,1.52-2.1,1.52c-1.18,0.03-2.32-0.39-3.19-1.18c-0.16-0.15-0.38-0.23-0.6-0.24c-0.5,0-0.9,0.41-0.89,0.91
	c0,0.01,0,0.01,0,0.02c-0.01,0.27,0.13,0.53,0.35,0.68c1.2,1,2.72,1.54,4.28,1.53c1.95,0.24,3.74-1.14,3.98-3.09
	c0.01-0.1,0.02-0.2,0.03-0.31C936.98,255.1,935.85,254.08,933.22,253.51z"/>
<linearGradient id="SVGID_1_" gradientUnits="userSpaceOnUse" x1="731.884" y1="34.5098" x2="932.5828" y2="235.2087">
	<stop  offset="0" style="stop-color:#45BFE1"/>
	<stop  offset="0.2501" style="stop-color:#43BFE1"/>
	<stop  offset="1" style="stop-color:#0C73AB"/>
</linearGradient>
<path fill="url(#SVGID_1_)" d="M927.29,34.05H736.68c-4.8-0.38-9.01,3.2-9.39,8c-0.04,0.54-0.04,1.08,0.02,1.61v182.39
	c-0.51,4.79,2.96,9.09,7.76,9.59c0.54,0.06,1.07,0.06,1.61,0.02h14.15c7.68,8.62,27.57,31,28.34,32.02c0.52,0.75,1.37,1.2,2.28,1.2
	c0.27,0,0.54-0.04,0.8-0.12c0.99-0.29,1.67-1.21,1.66-2.24v-30.85h143.38c5.2,0.48,9.81-3.34,10.29-8.54
	c0.03-0.36,0.05-0.71,0.04-1.07V43.67c0.11-5.22-4.03-9.54-9.26-9.65C928.01,34.01,927.65,34.02,927.29,34.05z"/>
<path fill="#FFFFFF" d="M843.31,120.13c-3.29-0.13-6.43-1.37-8.92-3.52l-2.85,4.3c3.19,2.84,7.3,4.43,11.57,4.5
	c6.28,0,10.2-3.72,10.2-9.48c0-5.28-4.51-7.24-8.52-8.61c-3.25-1.08-6.28-2.15-6.28-4.5c0-1.95,1.57-3.13,3.92-3.13
	c2.84,0.2,5.57,1.22,7.85,2.93l2.35-4.89c-2.95-2.04-6.42-3.2-10-3.33c-4.93-0.41-9.26,3.25-9.67,8.18
	c-0.03,0.3-0.04,0.61-0.03,0.92c0,5.67,4.41,7.63,8.53,8.9c3.24,0.97,6.18,1.96,6.18,4.3C847.63,118.86,845.96,120.13,843.31,120.13
	z M768.98,123.16l-2.55-6.06c-12.36,6.36-21.67-2.84-21.67-12.91c0.05-7.73,6.36-13.96,14.09-13.9c2.74,0.02,5.41,0.84,7.68,2.36
	l2.45-6.25c-10.15-5.58-22.91-1.88-28.5,8.27c-5.58,10.15-1.88,22.91,8.27,28.5C755.06,126.62,762.69,126.62,768.98,123.16
	L768.98,123.16z M758.29,151.04c-3.64,0.06-7.12,1.52-9.71,4.1v-14.67h-5.79v41.57h5.1l0.68-2.25c3,1.55,6.33,2.33,9.71,2.25
	c7.26,0,14.41-4.8,14.41-15.55C772.7,157.1,766.92,151.04,758.29,151.04z M757.21,177.15c-3.46,0.2-6.73-1.58-8.44-4.6v-6.65
	c-0.31-4.87,3.39-9.06,8.25-9.37c0.22-0.01,0.45-0.02,0.67-0.02c5.02-0.02,9.11,4.03,9.13,9.05c0,0.18,0,0.36-0.01,0.54
	C767.17,171.79,762.89,176.71,757.21,177.15L757.21,177.15z M798.69,109.28c0-8.81-6.18-15.55-14.22-15.55
	c-8.23,0.27-14.69,7.16-14.43,15.4c0,0.08,0.01,0.17,0.01,0.25c0,8.8,6.18,15.55,14.22,15.55
	C792.41,124.92,798.69,118.17,798.69,109.28z M776.14,109.28c0-5.67,3.33-9.88,8.14-9.88s8.43,4.3,8.43,9.88
	c0,5.58-3.43,9.78-8.24,9.78C779.75,119.06,776.14,114.75,776.14,109.28L776.14,109.28z M788.8,151.03c-3.64,0-7.23,0.84-10.49,2.45
	l1.67,4.79c2.47-1.19,5.19-1.79,7.94-1.76c4.9,0,7.16,2.06,7.16,6.94l-0.39,0.3c-2.45-0.87-5.04-1.3-7.64-1.28
	c-6.96,0-11.18,4.02-11.18,10.47c0,5.29,4.22,9.09,10.3,9.09c3.09-0.1,6.12-0.83,8.92-2.15l0.69,2.15h5.18v-18.49
	C800.94,155.64,796.43,151.03,788.8,151.03z M795.07,171.77c-0.78,5.08-6.18,5.57-7.94,5.57c-3.53,0-5.98-1.96-5.98-4.89
	c0-3.13,3.24-5.58,7.35-5.58c2.25,0,4.48,0.44,6.57,1.27V171.77z M808,108.59c0-5.28,3.04-9.09,7.56-9.09c4.6,0,7.26,3.03,7.26,8.32
	v17.11h5.59v-19.28c0-7.23-3.83-11.34-10.2-11.34c-4.81,0-8.73,1.56-10.39,4.59v-0.1c0.13-1.27,0.19-2.54,0.19-3.82h-5.68v29.93
	h5.68L808,108.59z M822.81,151.52c-4.8,0-8.73,1.58-10.39,4.6v-0.09c0.13-1.3,0.2-2.61,0.19-3.91h-5.69v29.93h5.68v-16.33
	c0-5.29,3.14-9.1,7.55-9.1c4.61,0,7.26,3.12,7.26,8.32v17.11H833v-19.18C833.01,155.64,829.19,151.52,822.81,151.52z M865.37,152.12
	h-7.75L844.88,166v-24.84h-5.98v40.89h5.98v-8.51l4.41-4.79l9.23,13.3h7.06l-12.35-17.22L865.37,152.12z M873.5,176.95h5.79v5.09
	h-5.79V176.95z M873.5,141.16h5.79v31h-5.79V141.16z M870.57,93.73c-8.05,0-14.31,6.85-14.31,15.65s6.17,15.55,14.21,15.55
	c8.23-0.27,14.68-7.15,14.42-15.38c0-0.09-0.01-0.17-0.01-0.26c0.45-8.14-5.78-15.09-13.92-15.54
	C870.82,93.74,870.69,93.73,870.57,93.73z M870.57,119.06c-5-0.39-8.73-4.76-8.33-9.76c0-0.01,0-0.01,0-0.02
	c0-5.67,3.42-9.88,8.23-9.88s8.43,4.3,8.43,9.88C878.89,114.95,875.47,119.06,870.57,119.06z M904.2,94.31
	c-3.68,0.01-7.07,2.04-8.81,5.28l-0.2,0.29l-0.58-0.09v-4.8h-5.79v29.93h5.79v-12.9c0-6.65,2.84-11.35,7.06-11.35
	c1.07-0.11,2.15,0.06,3.13,0.49V94.4h-0.2C904.47,94.33,904.33,94.3,904.2,94.31z M919.38,107.32c-3.22-1.08-6.37-2.15-6.37-4.5
	c0-1.95,1.67-3.13,4.03-3.13c2.81,0.19,5.51,1.21,7.74,2.93l2.44-4.89c-2.97-2.06-6.47-3.21-10.08-3.33c-5-0.35-9.34,3.41-9.69,8.41
	c-0.02,0.23-0.02,0.46-0.02,0.68c0,5.67,4.52,7.53,8.53,8.9c3.24,1.08,6.27,1.96,6.27,4.3c0,2.15-1.77,3.43-4.41,3.43
	c-3.31-0.18-6.47-1.41-9.03-3.52l-2.64,4.3c3.19,2.84,7.29,4.43,11.56,4.49c6.18,0,10.11-3.72,10.11-9.48
	C927.83,110.65,923.41,108.69,919.38,107.32z"/>
</svg>
